<?xml version="1.0" standalone="no"?>
<!DOCTYPE svg PUBLIC "-//W3C//DTD SVG 20010904//EN"
 "http://www.w3.org/TR/2001/REC-SVG-20010904/DTD/svg10.dtd">
<svg version="1.0" xmlns="http://www.w3.org/2000/svg"
 width="400.000000pt" height="100.000000pt" viewBox="0 0 400.000000 100.000000"
 preserveAspectRatio="xMidYMid meet">

<g transform="translate(0.000000,100.000000) scale(0.100000,-0.100000)"
fill="#FFFFFF" stroke="none">
<path d="M390 939 c0 -22 5 -32 20 -36 19 -5 20 -14 20 -178 l0 -173 -30 -12
c-40 -17 -96 -73 -122 -123 -17 -32 -22 -60 -22 -117 0 -64 4 -83 29 -129 85
-155 282 -185 406 -61 125 125 97 340 -56 421 l-45 24 0 172 c0 166 1 173 20
173 16 0 20 7 20 35 l0 35 -120 0 -120 0 0 -31z m170 -226 l0 -188 49 -22 c96
-42 148 -159 118 -264 -31 -103 -114 -169 -214 -169 -91 0 -158 41 -199 123
-22 43 -25 61 -22 117 5 94 42 154 120 194 l57 29 -6 183 -6 184 51 0 52 0 0
-187z"/>
<path d="M495 511 c-8 -15 3 -31 21 -31 9 0 14 7 12 17 -4 20 -24 28 -33 14z
m25 -11 c0 -5 -4 -10 -10 -10 -5 0 -10 5 -10 10 0 6 5 10 10 10 6 0 10 -4 10
-10z"/>
<path d="M432 421 c-23 -14 -10 -46 18 -46 16 0 26 6 28 19 3 16 -12 36 -28
36 -3 0 -11 -4 -18 -9z m36 -24 c2 -12 -3 -17 -17 -17 -12 0 -21 6 -21 13 0
31 32 34 38 4z"/>
<path d="M516 344 c-19 -19 -20 -36 -4 -52 24 -24 78 -8 78 24 0 17 -28 44
-45 44 -7 0 -21 -7 -29 -16z m49 -10 c12 -12 13 -19 4 -30 -6 -8 -17 -14 -24
-14 -7 0 -18 6 -24 14 -9 11 -8 18 4 30 9 9 18 16 20 16 2 0 11 -7 20 -16z"/>
<path d="M342 274 c-43 -30 -15 -102 59 -151 86 -57 206 -36 270 47 39 51 44
75 20 99 -26 26 -56 26 -105 0 l-38 -20 -61 20 c-73 25 -115 26 -145 5z"/>
<path d="M1808 788 c-52 -11 -62 -24 -24 -34 13 -3 27 -15 30 -27 3 -12 6
-122 6 -244 0 -123 3 -223 8 -223 4 0 13 9 20 20 12 19 12 19 49 -2 81 -48
186 -20 232 62 19 35 23 52 19 106 -4 71 -23 104 -78 142 -48 32 -118 31 -159
-4 l-31 -26 0 121 c0 91 -3 121 -12 120 -7 -1 -34 -6 -60 -11z m219 -223 c33
-23 56 -96 51 -156 -6 -56 -31 -97 -71 -117 -39 -19 -93 6 -112 52 -30 72 -12
199 32 225 26 15 75 13 100 -4z"/>
<path d="M2691 789 c-24 -5 -46 -11 -48 -13 -9 -9 8 -26 27 -26 10 0 21 -7 24
-16 3 -9 6 -108 6 -220 l0 -205 -30 -17 c-16 -9 -30 -20 -30 -24 0 -5 41 -8
90 -8 86 0 115 11 68 26 -13 4 -26 12 -30 18 -4 6 -8 120 -8 254 0 187 -3 242
-12 241 -7 -1 -33 -5 -57 -10z"/>
<path d="M960 752 c0 -4 14 -13 30 -19 l30 -11 -2 -214 -3 -213 -29 -5 c-16
-3 -31 -11 -34 -17 -3 -10 44 -13 212 -13 l216 0 0 65 c0 65 -14 87 -26 41 -3
-13 -17 -35 -31 -48 -20 -19 -37 -24 -101 -26 -66 -3 -81 -1 -102 16 -24 20
-25 24 -28 183 -4 203 0 228 39 242 51 20 32 27 -71 27 -55 0 -100 -4 -100 -8z"/>
<path d="M2220 750 c0 -5 7 -10 15 -10 8 0 24 -9 35 -20 19 -19 20 -33 20
-206 0 -109 -4 -193 -10 -205 -6 -11 -21 -19 -35 -19 -16 0 -25 -6 -25 -15 0
-12 20 -15 116 -15 88 0 115 3 112 13 -3 6 -18 14 -34 15 -49 6 -54 17 -54
119 l0 95 38 -6 c38 -7 82 -45 82 -72 0 -8 5 -14 10 -14 6 0 10 38 10 95 0 88
-10 121 -25 76 -9 -29 -36 -49 -77 -56 l-38 -7 0 106 0 106 75 0 c90 0 121
-13 137 -57 14 -38 44 -47 34 -10 -3 12 -6 39 -6 60 l0 37 -190 0 c-120 0
-190 -4 -190 -10z"/>
<path d="M1490 603 c-45 -17 -64 -59 -36 -82 19 -16 42 -4 56 30 7 17 23 32
36 35 29 7 74 -19 74 -44 0 -9 3 -26 6 -38 5 -18 -4 -25 -63 -50 -95 -40 -133
-76 -133 -123 0 -81 101 -105 170 -41 l29 27 6 -24 c9 -36 44 -48 88 -29 39
16 53 42 17 31 -42 -13 -50 9 -50 131 0 122 -9 156 -47 173 -24 11 -126 14
-153 4z m136 -200 c-11 -86 -62 -131 -111 -99 -14 9 -25 25 -25 35 0 27 36 68
78 91 59 31 66 27 58 -27z"/>
<path d="M2962 589 c-117 -58 -123 -231 -12 -305 78 -52 196 -29 246 46 48 72
44 157 -9 217 -57 65 -145 82 -225 42z m153 -42 c81 -81 40 -257 -60 -257 -51
0 -74 15 -96 63 -65 145 55 295 156 194z"/>
<path d="M3270 596 c0 -8 10 -16 23 -18 19 -3 29 -24 75 -166 33 -98 58 -162
65 -159 6 2 31 53 55 113 24 60 47 112 51 116 4 5 25 -46 46 -112 21 -66 42
-120 46 -120 13 0 27 27 79 160 30 74 64 145 77 158 13 13 23 27 23 32 0 6
-29 10 -65 10 -51 0 -65 -3 -65 -15 0 -8 9 -15 20 -15 29 0 26 -33 -11 -130
-21 -54 -34 -78 -39 -69 -5 8 -22 54 -39 102 -36 101 -49 129 -59 123 -5 -3
-28 -57 -52 -120 -24 -64 -47 -112 -51 -108 -10 10 -49 154 -49 180 0 15 6 22
20 22 11 0 20 7 20 15 0 12 -16 15 -85 15 -67 0 -85 -3 -85 -14z"/>
</g>
</svg>
